<svg width="16" height="16" viewBox="0 0 16 16" fill="none" xmlns="http://www.w3.org/2000/svg">
<path d="M10.1468 4.36719H3.8535C3.66683 4.36719 3.4935 4.37385 3.3335 4.38052C1.7535 4.47385 1.3335 5.05385 1.3335 6.85385V7.24052C1.3335 7.60719 1.6335 7.90719 2.00016 7.90719H12.0002C12.3668 7.90719 12.6668 7.60719 12.6668 7.24052V6.85385C12.6668 4.86719 12.1602 4.36719 10.1468 4.36719Z" fill="#FCD6BB"/>
<path d="M2.00016 8.90723C1.6335 8.90723 1.3335 9.20723 1.3335 9.57389V11.5139C1.3335 13.5006 1.84016 14.0006 3.8535 14.0006H10.1468C12.1268 14.0006 12.6468 13.5206 12.6668 11.6206V9.57389C12.6668 9.20723 12.3668 8.90723 12.0002 8.90723H2.00016ZM4.64016 12.3739H3.50016C3.22683 12.3739 3.00016 12.1472 3.00016 11.8739C3.00016 11.6006 3.22683 11.3739 3.50016 11.3739H4.64683C4.92016 11.3739 5.14683 11.6006 5.14683 11.8739C5.14683 12.1472 4.92016 12.3739 4.64016 12.3739ZM8.36683 12.3739H6.0735C5.80016 12.3739 5.5735 12.1472 5.5735 11.8739C5.5735 11.6006 5.80016 11.3739 6.0735 11.3739H8.36683C8.64016 11.3739 8.86683 11.6006 8.86683 11.8739C8.86683 12.1472 8.64683 12.3739 8.36683 12.3739Z" fill="#FCD6BB"/>
<path d="M14.6666 8.88706V5.39372C14.6666 3.30706 13.4732 2.40039 11.6732 2.40039H5.71991C5.21324 2.40039 4.75991 2.47372 4.35991 2.62706C4.04658 2.74039 3.76658 2.90706 3.53991 3.12706C3.41991 3.24039 3.51324 3.42706 3.68658 3.42706H10.9332C12.4332 3.42706 13.6466 4.64039 13.6466 6.14039V10.9204C13.6466 11.0871 13.8266 11.1804 13.9466 11.0604C14.4066 10.5737 14.6666 9.86039 14.6666 8.88706Z" fill="#FCD6BB"/>
</svg>
